<svg height="512" viewBox="0 0 60 60" width="512" xmlns="http://www.w3.org/2000/svg"><g id="Page-1" fill="none" fill-rule="evenodd"><g id="035---Browser-Certified" fill-rule="nonzero"><path id="Shape" d="m53 9v34c-.0032948 1.1032019-.8967981 1.9967052-2 2h-.3c-.8845727-1.8717973-1.2966066-3.9319668-1.2-6l-.01-.01c4.0527995-5.8217476 3.1109444-13.7546409-2.1923754-18.4655567-5.3033197-4.7109159-13.2919295-4.7109159-18.5952492 0-5.3033198 4.7109158-6.2451749 12.6438091-2.1923754 18.4655567l-.01.01c.0966066 2.0680332-.3154273 4.1282027-1.2 6h-22.3c-1.10320187-.0032948-1.9967052-.8967981-2-2v-34z" fill="#f5f5f5"/><path id="Shape" d="m50 9v14.818c2.6679238 4.4228164 2.6679238 9.9591836 0 14.382v4.8c0 .025-.006.047-.007.072.1873114.6593807.4236361 1.3038418.707 1.928h.3c1.1032019-.0032948 1.9967052-.8967981 2-2v-34z" fill="#cfd8dc"/><path id="Shape" d="m36.5 17.083c-5.4518796-.5911036-10.7464984 2.05711-13.5434548 6.7740401-2.7969563 4.7169302-2.5805911 10.6329431.5534548 15.1329599l-.01.01c.0966066 2.0680332-.3154273 4.1282027-1.2 6h3c.8845727-1.8717973 1.2966066-3.9319668 1.2-6l.01-.01c-2.8250955-4.0566065-3.2997885-9.3029377-1.2487044-13.8007455 2.0510842-4.4978078 6.3234595-7.5793874 11.2387044-8.1062545z" fill="#cfd8dc"/><path id="Shape" d="m53 3v6h-52v-6c.0032948-1.10320187.89679813-1.9967052 2-2h48c1.1032019.0032948 1.9967052.89679813 2 2z" fill="#607d8b"/><path id="Shape" d="m51 1h-3c1.1032019.0032948 1.9967052.89679813 2 2v6h3v-6c-.0032948-1.10320187-.8967981-1.9967052-2-2z" fill="#37474f"/><rect id="Rectangle-path" fill="#02a9f4" height="5" rx="1" width="15" x="5" y="25"/><path id="Shape" d="m19 25h-3c.5522847 0 1 .4477153 1 1v3c0 .5522847-.4477153 1-1 1h3c.5522847 0 1-.4477153 1-1v-3c0-.5522847-.4477153-1-1-1z" fill="#0377bc"/><path id="Shape" d="m38 17c-7.7262967.003866-13.9872867 6.2690346-13.9859981 13.9953322.0012887 7.7262975 6.2643684 13.9893772 13.9906659 13.9906659 7.7262976.0012886 13.9914662-6.2597014 13.9953322-13.9859981 0-3.7130309-1.4749958-7.2739856-4.1005051-9.8994949s-6.186464-4.1005051-9.8994949-4.1005051zm8.79 11.55-3.64 3.72c-.1583852.1730561-.2316655.4075531-.2.64l.86 5.24c.0568403.2674353-.0472269.5434876-.2664689.7068444-.219242.1633567-.5135274.1841162-.7535311.0531556l-4.46-2.46c-.2061943-.1102227-.4538057-.1102227-.66 0l-4.46 2.46c-.2400037.1309606-.5342891.1102011-.7535311-.0531556-.219242-.1633568-.3233092-.4394091-.2664689-.7068444l.86-5.24c.0316655-.2324469-.0416148-.4669439-.2-.64l-3.64-3.72c-.1888584-.1930974-.2558482-.4745996-.1742121-.7320673s.2985928-.448938.5642121-.4979327l5.01-.76c.2307944-.0401548.4280978-.189063.53-.4l2.23-4.75c.1090717-.2507971.3565117-.4130128.63-.4130128s.5209283.1622157.63.4130128l2.23 4.75c.1019022.210937.2992056.3598452.53.4l5.01.76c.2656193.0489947.482576.240465.5642121.4979327s.0146463.5389699-.1742121.7320673z" fill="#ff9801"/><path id="Shape" d="m38 17c-.501124.000841-1.0018425.0285475-1.5.083 6.9761349.7609069 12.3111507 6.5690178 12.4780245 13.5845428s-4.8859571 13.0707249-11.8180245 14.1624572c-.216.034-.439.054-.66.078.4979615.0578477.9987015.0885598 1.5.092 7.7319864-.0000001 13.9999998-6.2680136 13.9999998-14s-6.2680134-13.9999999-13.9999998-14z" fill="#f57c00"/><path id="Shape" d="m43.15 32.27c-.1583852.1730561-.2316655.4075531-.2.64l.86 5.24c.0568403.2674353-.0472269.5434876-.2664689.7068444-.219242.1633567-.5135274.1841162-.7535311.0531556l-4.46-2.46c-.2061943-.1102227-.4538057-.1102227-.66 0l-4.46 2.46c-.2400037.1309606-.5342891.1102011-.7535311-.0531556-.219242-.1633568-.3233092-.4394091-.2664689-.7068444l.86-5.24c.0316655-.2324469-.0416148-.4669439-.2-.64l-3.64-3.72c-.1888584-.1930974-.2558482-.4745996-.1742121-.7320673s.2985928-.448938.5642121-.4979327l5.01-.76c.2307944-.0401548.4280978-.189063.53-.4l2.23-4.75c.1090717-.2507971.3565117-.4130128.63-.4130128s.5209283.1622157.63.4130128l2.23 4.75c.1019022.210937.2992056.3598452.53.4l5.01.76c.2656193.0489947.482576.240465.5642121.4979327s.0146463.5389699-.1742121.7320673z" fill="#ffdc00"/><path id="Shape" d="m35.84 44.83c-.2893919 1.7722789-.972854 3.4570129-2 4.93-1.21 1.7-2.97 2.74-4.51 4.06-1.4819604 1.3726433-2.4755766 3.1913471-2.83 5.18-1.6494485-1.523508-2.3718418-3.8047501-1.9-6-2.85 2-7.6 0-7.6 0 3.640954-1.5783815 6.58871-4.4195921 8.3-8 .8845727-1.8717973 1.2966066-3.9319668 1.2-6l.01-.01c2.177005 3.1443228 5.5504581 5.2558947 9.33 5.84z" fill="#ff5722"/><path id="Shape" d="m21.6 53c-.5523164.3762099-1.1768975.6333302-1.834.755.5619898.0911704 1.1306821.1346586 1.7.13.0134204-.2988914.0583357-.5955331.134-.885z" fill="#d84315"/><path id="Shape" d="m26.51 38.99-.01.01c.0597043.9868112-.0146393 1.9771617-.221 2.944 1.8961411 1.5206032 4.1587934 2.5158805 6.561 2.886-.2893919 1.7722789-.972854 3.4570129-2 4.93-1.21 1.7-2.97 2.74-4.51 4.06-.6611639.5864276-1.2213149 1.2776634-1.658 2.046.3373173 1.1812441.9658733 2.2588668 1.828 3.134.3544234-1.9886529 1.3480396-3.8073567 2.83-5.18 1.54-1.32 3.3-2.36 4.51-4.06 1.027146-1.4729871 1.7106081-3.1577211 2-4.93-3.7795419-.5841053-7.152995-2.6956772-9.33-5.84z" fill="#d84315"/><path id="Shape" d="m51.4 53c.4718418 2.1952499-.2505515 4.476492-1.9 6-.3544234-1.9886529-1.3480396-3.8073567-2.83-5.18-1.54-1.32-3.3-2.36-4.51-4.06-1.027146-1.4729871-1.7106081-3.1577211-2-4.93 3.7795419-.5841053 7.152995-2.6956772 9.33-5.84l.01.01c-.0966066 2.0680332.3154273 4.1282027 1.2 6 1.71129 3.5804079 4.659046 6.4216185 8.3 8 0 0-4.75 2-7.6 0z" fill="#ff5722"/><path id="Shape" d="m50.7 45c-.8845727-1.8717973-1.2966066-3.9319668-1.2-6l-.01-.01c-.7751622 1.1134957-1.707892 2.1085422-2.769 2.954.2063821 1.0532717.5349362 2.0788705.979 3.056 1.71129 3.5804079 4.659046 6.4216185 8.3 8-.8921616.350418-1.8195287.6035497-2.766.755 1.954936.2442621 3.939859-.0156437 5.766-.755-3.640954-1.5783815-6.58871-4.4195921-8.3-8z" fill="#d84315"/><path id="Shape" d="m48.4 53c.2286428.9450218.2038064 1.933651-.072 2.866.6033442.9523017 1.0024304 2.0194827 1.172 3.134 1.3790794-1.3354854 2.1211472-3.1970237 2.039-5.115-1.1116031.0280151-2.2057371-.2804617-3.139-.885z" fill="#d84315"/><circle id="Oval" cx="5" cy="5" fill="#f44335" r="1"/><circle id="Oval" cx="9" cy="5" fill="#ffdc00" r="1"/><circle id="Oval" cx="13" cy="5" fill="#60a917" r="1"/><g fill="#000"><path id="Shape" d="m53 23c.5522847 0 1-.4477153 1-1v-19c0-1.65685425-1.3431458-3-3-3h-48c-1.65685425 0-3 1.34314575-3 3v40c0 1.6568542 1.34314575 3 3 3h18c.5522847 0 1-.4477153 1-1s-.4477153-1-1-1h-18c-.55228475 0-1-.4477153-1-1v-33h50v12c0 .5522847.4477153 1 1 1zm-51-15v-5c0-.55228475.44771525-1 1-1h48c.5522847 0 1 .44771525 1 1v5z"/><path id="Shape" d="m31 4h-7c-.5522847 0-1 .44771525-1 1s.4477153 1 1 1h7c.5522847 0 1-.44771525 1-1s-.4477153-1-1-1z"/><path id="Shape" d="m5 15h2c.55228475 0 1-.4477153 1-1s-.44771525-1-1-1h-2c-.55228475 0-1 .4477153-1 1s.44771525 1 1 1z"/><path id="Shape" d="m20 13h-9c-.5522847 0-1 .4477153-1 1s.4477153 1 1 1h9c.5522847 0 1-.4477153 1-1s-.4477153-1-1-1z"/><path id="Shape" d="m33 14c0-.5522847-.4477153-1-1-1h-8c-.5522847 0-1 .4477153-1 1s.4477153 1 1 1h8c.5522847 0 1-.4477153 1-1z"/><path id="Shape" d="m19 19c.5522847 0 1-.4477153 1-1s-.4477153-1-1-1h-2c-.5522847 0-1 .4477153-1 1s.4477153 1 1 1z"/><path id="Shape" d="m23 17c-.5522847 0-1 .4477153-1 1s.4477153 1 1 1h2c.5522847 0 1-.4477153 1-1s-.4477153-1-1-1z"/><path id="Shape" d="m5 19h8c.5522847 0 1-.4477153 1-1s-.4477153-1-1-1h-8c-.55228475 0-1 .4477153-1 1s.44771525 1 1 1z"/><path id="Shape" d="m4 29c0 1.1045695.8954305 2 2 2h13c1.1045695 0 2-.8954305 2-2v-3c0-1.1045695-.8954305-2-2-2h-13c-1.1045695 0-2 .8954305-2 2zm2-3h13v3h-13z"/><path id="Shape" d="m43.962 32.875 3.544-3.624c.4559123-.4668335.6105609-1.1503807.4-1.768-.1992301-.6083778-.7233379-1.053251-1.356-1.151l-4.85-.739-2.17-4.612c-.275734-.5982342-.874279-.9814202-1.533-.9814202s-1.257266.383186-1.533.9814202l-2.164 4.612-4.849.739c-.6327916.0972298-1.1572969.5417258-1.357 1.15-.2108015.6176066-.0561239 1.3012816.4 1.768l3.544 3.625-.838 5.118c-.1129544.6554843.1619253 1.3173761.706 1.7.5250464.3740962 1.2183957.4130047 1.782.1l4.312-2.382 4.312 2.379c.5633517.3125812 1.2561806.27368 1.781-.1.5440747-.3826239.8189544-1.0445157.706-1.7zm-1.994.2.762 4.666-3.918-2.162c-.505133-.2799745-1.118867-.2799745-1.624 0l-3.918 2.157.762-4.666c.090746-.5461082-.0833291-1.1028515-.469-1.5l-3.273-3.343 4.47-.682c.5611704-.0864548 1.0421325-.447364 1.282-.962l1.958-4.163 1.958 4.163c.2396762.5143707.7202026.8752344 1.281.962l4.471.682-3.273 3.348c-.3845528.3957697-.5585756.9504904-.469 1.495z"/><path id="Shape" d="m59.435 52.1c-8.938-4.31-9.017-11.491-8.954-12.794 4.1720263-6.2600699 3.0616964-14.6422235-2.5963086-19.6001725s-14.1133778-4.957949-19.7713828 0-6.7683349 13.3401026-2.5963086 19.6001725c.05 1.269-.075 8.517-8.952 12.8-.3544259.1707349-.5758153.5334148-.565676.9266899.0101392.3932752.2499231.7440653.612676.8963101.18.075 3.766 1.557 6.846.7.1290297 1.9160904.9529037 3.7192262 2.317 5.071l.018.019c.2942536.2941971.7399339.3754403 1.1190695.2039954.3791355-.1714449.6124881-.5597463.5859305-.9749954.3910144-1.6610648 1.253191-3.1739538 2.483-4.357.438-.375.894-.727 1.351-1.079 1.2593734-.8790902 2.378676-1.9434391 3.32-3.157.9273872-1.3337 1.5934844-2.8311464 1.963-4.413.456.042.917.07 1.385.07s.929-.028 1.385-.07c.3692136 1.5801962 1.0342576 3.076206 1.96 4.409.9429153 1.2108845 2.0632007 2.2725091 3.323 3.149.457.352.913.7 1.349 1.077 1.2297785 1.1838725 2.0919151 2.6973858 2.483 4.359-.0270525.4159518.2067431.8050569.5867057.9764518.3799625.1713949.8263872.0891262 1.1202943-.2064518l.016-.018c1.3637991-1.351574 2.1876412-3.1542843 2.317-5.07 3.081.861 6.667-.62 6.846-.7.3627529-.1522448.6025368-.5030349.612676-.8963101.0101393-.3932751-.2112501-.755955-.565676-.9266899zm-26.41-2.92c-.8309009 1.0515295-1.8132706 1.9739123-2.915 2.737-.483.372-.966.746-1.433 1.146-1.1308504 1.024213-2.012346 2.2936078-2.577 3.711-.6062241-1.0495728-.8014905-2.286735-.548-3.472.1287636-.4085072-.0169322-.8536569-.3623102-1.1069793-.3453779-.2533225-.8137348-.2585585-1.1646898-.0130207-1.3499622.7440678-2.9361223.9348086-4.424.532 5.708-3.542 7.33-8.237 7.767-11.145 1.9942432 2.0054452 4.5154349 3.4054138 7.272 4.038-.3155327 1.2796615-.8629072 2.4906641-1.615 3.573zm-8.025-18.18c0-7.1797017 5.8202983-13 13-13s13 5.8202983 13 13-5.8202983 13-13 13c-7.1762751-.008266-12.991734-5.8237249-13-13zm23.775 27.312-.01.01.011-.012zm3.2-6.13c-.3509476-.2463531-.8198926-.2415515-1.1657222.0119362-.3458295.2534876-.4915661.699238-.3622778 1.1080638.2576191 1.1859159.0617556 2.4253143-.549 3.474-.5645669-1.4188439-1.4464209-2.6896305-2.578-3.715-.464-.4-.947-.772-1.43-1.144-1.1026983-.7637884-2.0857691-1.6872077-2.917-2.74-.7517437-1.0813119-1.2987936-2.2913292-1.614-3.57 2.756765-.6328222 5.2782167-2.0327427 7.273-4.038.436 2.908 2.058 7.6 7.766 11.145-1.4875672.402538-3.0733152.2118036-4.423-.532z"/></g></g></g></svg>