<svg height="512" viewBox="0 0 128 128" width="512" xmlns="http://www.w3.org/2000/svg"><g><path d="m6.306 35.4v75.9a10.391 10.391 0 0 0 10.394 10.394h99.151v-75.9h-99.151a10.391 10.391 0 0 1 -10.394-10.394z" fill="#f9cc4e"/><path d="m115.848 25.011v20.782h-99.148a10.391 10.391 0 0 1 -10.394-10.393 10.391 10.391 0 0 1 10.394-10.389z" fill="#f95050"/><path d="m121.694 96.2h-31.551a12.456 12.456 0 0 1 -12.456-12.457 12.456 12.456 0 0 1 12.456-12.456h31.551z" fill="#4ec4b5"/><circle cx="90.143" cy="83.743" fill="#f95050" r="5.154"/><path d="m24.514 45.793 39.486-39.487 39.486 39.487z" fill="#4ec4b5"/><g fill="#142850"><path d="m90.557 119.943h-4.5a1.75 1.75 0 0 0 0 3.5h4.5a1.75 1.75 0 0 0 0-3.5z"/><path d="m121.693 69.537h-4.093v-44.526a1.75 1.75 0 0 0 -1.75-1.75h-32.421l-18.192-18.192a1.75 1.75 0 0 0 -2.474 0l-18.192 18.192h-11.679a1.75 1.75 0 0 0 0 3.5h8.179l-17.282 17.282h-7.089a8.641 8.641 0 0 1 0-17.282h8.518a1.75 1.75 0 0 0 0-3.5h-8.518a12.154 12.154 0 0 0 -12.143 12.139v75.9a12.154 12.154 0 0 0 12.14 12.14h60.703a1.75 1.75 0 0 0 0-3.5h-60.7a8.65 8.65 0 0 1 -8.64-8.64v-67.383a12.1 12.1 0 0 0 8.64 3.626h97.4v21.994h-23.956a14.206 14.206 0 1 0 0 28.412h23.956v21.994h-15.306a1.75 1.75 0 0 0 0 3.5h17.055a1.75 1.75 0 0 0 1.75-1.75v-23.744h4.094a1.749 1.749 0 0 0 1.75-1.75v-24.912a1.749 1.749 0 0 0 -1.75-1.75zm-7.593-42.776v17.282h-9.888l-17.283-17.282zm-50.1-17.98 35.262 35.262h-8.734l-18.45-18.45a1.748 1.748 0 0 0 -2.474 0 7.934 7.934 0 0 1 -11.208 0 1.8 1.8 0 0 0 -2.475 0l-18.449 18.45h-8.734zm21.579 35.262h-43.158l14.831-14.832a11.435 11.435 0 0 0 13.495 0zm34.364 50.406h-29.8a10.706 10.706 0 1 1 0-21.412h29.8z"/><path d="m90.144 76.839a6.9 6.9 0 1 0 6.9 6.9 6.913 6.913 0 0 0 -6.9-6.9zm0 10.308a3.4 3.4 0 1 1 3.4-3.4 3.409 3.409 0 0 1 -3.4 3.4z"/><path d="m17 81.993a1.75 1.75 0 0 0 -1.75 1.75v20.757a1.75 1.75 0 1 0 3.5 0v-20.757a1.75 1.75 0 0 0 -1.75-1.75z"/><path d="m18.754 71.287a1.75 1.75 0 0 0 -3.5 0v5.213a1.75 1.75 0 1 0 3.5 0z"/></g></g></svg>